<?xml version="1.0" encoding="utf-8"?>
<!-- Generator: Adobe Illustrator 18.0.0, SVG Export Plug-In . SVG Version: 6.00 Build 0)  -->
<!DOCTYPE svg PUBLIC "-//W3C//DTD SVG 1.1//EN" "http://www.w3.org/Graphics/SVG/1.1/DTD/svg11.dtd">
<svg version="1.1" id="Layer_1" xmlns="http://www.w3.org/2000/svg" xmlns:xlink="http://www.w3.org/1999/xlink" x="0px" y="0px"
	 viewBox="0 0 800 600" enable-background="new 0 0 800 600" xml:space="preserve">
<path fill="#F2F2F2" d="M331.1,302.5H94.4c-6.6,0-12,5.4-12,12v36.8c0,6.6,5.4,12,12,12h236.8c6.6,0,12-5.4,12-12v-36.8
	C343.1,307.9,337.7,302.5,331.1,302.5z"/>
<path fill="#B3B3B3" d="M370.9,57.7V21.6c0-6.6-5.4-12-12-12H22.5c-6.6,0-12,5.4-12,12v36.1C10.5,57.7,370.9,57.7,370.9,57.7z"/>
<path fill="none" stroke="#B3B3B3" stroke-miterlimit="10" d="M370.5,57.6v475.8c0,6.6-5.4,12-12,12H23c-6.6,0-12-5.4-12-12V57.6"/>
<path fill="#E6E6E6" d="M54.7,438.3h-20c-6.6,0-12,5.4-12,12v11.2c0,6.6,5.4,12,12,12h20c6.6,0,12-5.4,12-12v-11.2
	C66.7,443.7,61.3,438.3,54.7,438.3z"/>
<path fill="#E6E6E6" d="M346.8,383.9H136.6c-6.6,0-12,5.4-12,12v10.9c0,6.6,5.4,12,12,12h210.2c6.6,0,12-5.4,12-12v-10.9
	C358.8,389.3,353.4,383.9,346.8,383.9z"/>
<path fill="#B3B3B3" d="M344.6,529.2h-310c-6.6,0-12-5.4-12-12v-12.8c0-6.6,5.4-12,12-12h310c6.6,0,12,5.4,12,12v12.8
	C356.6,523.8,351.2,529.2,344.6,529.2z"/>
<rect x="36.1" y="80.6" fill="none" width="222.5" height="149.2"/>
<text transform="matrix(1 0 0 1 36.1341 93.988)" font-family="'Ubuntu-Light'" font-size="17.2442">ik sta op het punt om een </text>
<text transform="matrix(1 0 0 1 36.1341 114.688)" font-family="'Ubuntu-Light'" font-size="17.2442">salarisverhoging te krijgen </text>
<text transform="matrix(1 0 0 1 36.1341 135.388)" font-family="'Ubuntu-Light'" font-size="17.2442">op mijn werk, ik ontvang nu </text>
<text transform="matrix(1 0 0 1 36.1341 156.088)" font-family="'Ubuntu-Light'" font-size="17.2442">nog huurtoeslag.</text>
<text transform="matrix(1 0 0 1 36.1341 197.488)" font-family="'Ubuntu-Light'" font-size="17.2442">gaat dit invloed hebben om </text>
<text transform="matrix(1 0 0 1 36.1341 218.188)" font-family="'Ubuntu-Light'" font-size="17.2442">mijn huurtoeslag?</text>
<rect x="116.6" y="392.3" fill="none" width="231.9" height="23.3"/>
<text transform="matrix(1 0 0 1 137.8533 405.6495)" fill="#FFFFFF" font-family="'Ubuntu-Light'" font-size="17.2442">hoeveel ga je er op vooruit?</text>
<text transform="matrix(1 0 0 1 33.2459 462.4201)" fill="#FFFFFF" font-family="'Ubuntu-Light'" font-size="17.2442">5%</text>
<path fill="#E6E6E6" d="M342.8,249.9H65.1c-6.6,0-12,5.4-12,12v10.9c0,6.6,5.4,12,12,12h277.7c6.6,0,12-5.4,12-12v-10.9
	C354.8,255.3,349.4,249.9,342.8,249.9z"/>
<rect x="57.3" y="258.9" fill="none" width="287.2" height="23.4"/>
<text transform="matrix(1 0 0 1 64.7825 272.236)" fill="#FFFFFF" font-family="'Ubuntu-Light'" font-size="17.2442">mag ik inzien hoeveel je nu verdient?</text>
<path fill="#E6E6E6" d="M65.2,302.5H36.7c-6.6,0-12,5.4-12,12v36.8c0,6.6,5.4,12,12,12h28.5c6.6,0,12-5.4,12-12v-36.8
	C77.2,307.9,71.8,302.5,65.2,302.5z"/>
<rect x="93.5" y="310.7" fill="none" width="242.3" height="49.1"/>
<text transform="matrix(1 0 0 1 93.5149 320.0518)" fill="#FFFFFF" font-family="'Ubuntu-LightItalic'" font-size="12.0709">je hebt toestemming gegeven om eenmalig je </text>
<text transform="matrix(1 0 0 1 93.5149 334.5518)" fill="#FFFFFF" font-family="'Ubuntu-LightItalic'" font-size="12.0709">inkomensgegevens beschikbaar te stellen aan: </text>
<text transform="matrix(1 0 0 1 93.5149 349.0518)" fill="#FFFFFF" font-family="'Ubuntu-BoldItalic'" font-size="12.0709">de belastingdienst</text>
<path fill="#E6E6E6" d="M247.6,69.5H34.7c-6.6,0-12,5.4-12,12v140.4c0,6.6,5.4,12,12,12h212.9c6.6,0,12-5.4,12-12V81.5
	C259.6,74.9,254.2,69.5,247.6,69.5z"/>
<rect x="36.1" y="80.6" fill="none" width="222.5" height="149.2"/>
<text transform="matrix(1 0 0 1 36.1341 93.988)" fill="#FFFFFF" font-family="'Ubuntu-Light'" font-size="17.2442">ik sta op het punt om een </text>
<text transform="matrix(1 0 0 1 36.1341 114.688)" fill="#FFFFFF" font-family="'Ubuntu-Light'" font-size="17.2442">salarisverhoging te krijgen </text>
<text transform="matrix(1 0 0 1 36.1341 135.388)" fill="#FFFFFF" font-family="'Ubuntu-Light'" font-size="17.2442">op mijn werk, ik ontvang nu </text>
<text transform="matrix(1 0 0 1 36.1341 156.088)" fill="#FFFFFF" font-family="'Ubuntu-Light'" font-size="17.2442">nog huurtoeslag.</text>
<text transform="matrix(1 0 0 1 36.1341 197.488)" fill="#FFFFFF" font-family="'Ubuntu-Light'" font-size="17.2442">gaat dit invloed hebben om </text>
<text transform="matrix(1 0 0 1 36.1341 218.188)" fill="#FFFFFF" font-family="'Ubuntu-Light'" font-size="17.2442">mijn huurtoeslag?</text>
<rect x="11" y="22" fill="none" width="359.5" height="28"/>
<text transform="matrix(1 0 0 1 136.9485 42.9751)" fill="#FFFFFF" font-family="'Ubuntu-Bold'" font-size="27.0303">chat bot</text>
<rect x="24.7" y="504.6" fill="none" width="334" height="24"/>
<text transform="matrix(1 0 0 1 132.978 515.4622)" fill="#FFFFFF" font-family="'Ubuntu-LightItalic'" font-size="14">Schrijf een bericht...</text>
<path fill="#B3B3B3" d="M764.8,57.7V21.6c0-6.6-5.4-12-12-12H416.4c-6.6,0-12,5.4-12,12v36.1C404.4,57.7,764.8,57.7,764.8,57.7z"/>
<path fill="none" stroke="#B3B3B3" stroke-miterlimit="10" d="M764.4,57.6v285.9c0,6.6-5.4,12-12,12H416.8c-6.6,0-12-5.4-12-12V57.6
	"/>
<rect x="430" y="80.6" fill="none" width="222.5" height="149.2"/>
<text transform="matrix(1 0 0 1 430.0006 93.988)" font-family="'Ubuntu-Light'" font-size="17.2442">ik sta op het punt om een </text>
<text transform="matrix(1 0 0 1 430.0006 114.688)" font-family="'Ubuntu-Light'" font-size="17.2442">salarisverhoging te krijgen </text>
<text transform="matrix(1 0 0 1 430.0006 135.388)" font-family="'Ubuntu-Light'" font-size="17.2442">op mijn werk, ik ontvang nu </text>
<text transform="matrix(1 0 0 1 430.0006 156.088)" font-family="'Ubuntu-Light'" font-size="17.2442">nog huurtoeslag.</text>
<text transform="matrix(1 0 0 1 430.0006 197.488)" font-family="'Ubuntu-Light'" font-size="17.2442">gaat dit invloed hebben om </text>
<text transform="matrix(1 0 0 1 430.0006 218.188)" font-family="'Ubuntu-Light'" font-size="17.2442">mijn huurtoeslag?</text>
<path fill="#E6E6E6" d="M739.8,69.5H428.5c-6.6,0-12,5.4-12,12v229.4c0,6.6,5.4,12,12,12h311.3c6.6,0,12-5.4,12-12V81.5
	C751.8,74.9,746.4,69.5,739.8,69.5z"/>
<rect x="430" y="80.6" fill="none" width="309" height="234.6"/>
<text transform="matrix(1 0 0 1 430.0011 99.2306)" fill="#FFFFFF" font-family="'Ubuntu-Light'" font-size="24">Op basis van je huidige </text>
<text transform="matrix(1 0 0 1 430.0011 128.0306)" fill="#FFFFFF" font-family="'Ubuntu-Light'" font-size="24">inkomen en de huur van je </text>
<text transform="matrix(1 0 0 1 430.0011 156.8306)" fill="#FFFFFF" font-family="'Ubuntu-Light'" font-size="24">huidige woning heb je recht </text>
<text transform="matrix(1 0 0 1 430.0011 185.6306)" fill="#FFFFFF" font-family="'Ubuntu-Light'" font-size="24">op:</text>
<text transform="matrix(1 0 0 1 430.0011 214.4306)" fill="#FFFFFF" font-family="'Ubuntu-Bold'" font-size="24">€200,- huurtoeslag</text>
<text transform="matrix(1 0 0 1 430.0011 272.0306)" fill="#FFFFFF" font-family="'Ubuntu-Light'" font-size="24">Klik hier om je huurtoeslag </text>
<text transform="matrix(1 0 0 1 430.0011 300.8306)" fill="#FFFFFF" font-family="'Ubuntu-Light'" font-size="24">aan te vragen.</text>
<text transform="matrix(1 0 0 1 531.1393 42.9751)" fill="#FFFFFF" font-family="'Ubuntu-Bold'" font-size="27.0303">timeline</text>
<rect x="424" y="246.9" fill="none" stroke="#FFFFFF" stroke-miterlimit="10" width="320" height="63.2"/>
<text transform="matrix(1 0 0 1 651.0957 343.2232)" fill="#4D4D4D" font-family="'Ubuntu-Bold'" font-size="15">1 dag geleden</text>
<path fill="#E6E6E6" d="M708.3,569.6h-84.4c-6.6,0-12-5.4-12-12v-57.1c0-6.6,5.4-12,12-12h84.4c6.6,0,12,5.4,12,12v57.1
	C720.3,564.2,714.9,569.6,708.3,569.6z"/>
<g>
	<path fill="#E6E6E6" d="M666.1,466.2c16.9,0,30.6,13.7,30.6,30.6s-13.7,30.6-30.6,30.6c-16.9,0-30.6-13.7-30.6-30.6
		C635.5,479.9,649.2,466.2,666.1,466.2 M666.1,455.2c-23,0-41.6,18.6-41.6,41.6c0,23,18.6,41.6,41.6,41.6s41.6-18.6,41.6-41.6
		S689.1,455.2,666.1,455.2L666.1,455.2z"/>
</g>
<text transform="matrix(1 0 0 1 621.6309 527.3038)" fill="#FFFFFF" font-family="'Ubuntu-Bold'" font-size="15.2106">persoonlijke</text>
<text transform="matrix(1 0 0 1 632.2309 545.6038)" fill="#FFFFFF" font-family="'Ubuntu-Bold'" font-size="15.2106">gegevens</text>
<rect x="432.4" y="498.3" fill="#E6E6E6" width="128.5" height="20.8"/>
<polygon fill="#E6E6E6" points="558.5,488.9 586.1,508.7 558.5,528.5 "/>
<rect x="457.6" y="541.4" fill="#E6E6E6" width="128.5" height="20.8"/>
<polygon fill="#E6E6E6" points="460,571.6 432.4,551.8 460,532 "/>
<text transform="matrix(1 0 0 1 481.1701 513.6124)" fill="#FFFFFF" font-family="'Ubuntu-Bold'" font-size="15.2106">verzoek</text>
<text transform="matrix(1 0 0 1 484.5929 556.7627)" fill="#FFFFFF" font-family="'Ubuntu-Bold'" font-size="15.2106">reactie</text>
<path fill="#B3B3B3" d="M764.8,432.6v-36.1c0-6.6-5.4-12-12-12H416.4c-6.6,0-12,5.4-12,12v36.1H764.8z"/>
<path fill="none" stroke="#B3B3B3" stroke-miterlimit="10" d="M764.4,432.5v149.8c0,6.6-5.4,12-12,12H416.8c-6.6,0-12-5.4-12-12
	V432.5"/>
<text transform="matrix(1 0 0 1 531.1393 417.9251)" fill="#FFFFFF" font-family="'Ubuntu-Bold'" font-size="27.0303">controle</text>
<path fill="#FFFFFF" d="M49.7,321.2c1.2-2.7,2.4-6.5,2.4-6.5s0.7-2.2,4-1.6c3.3,0.6,3.1,5,3.1,5s0.2,2.4-1.7,7.4
	c-1.9,5.1-1.4,3.1-1.4,3.1l6.3-0.3c0,0,3.6,0.1,4,2.9c0.4,2.8-1.3,3.2-1.3,3.2s2.5,0.4,2.3,3.3s-2.9,3.1-2.9,3.1s2,0.6,2,2.9
	c0,2.3-2.8,2.8-2.8,2.8s1,0.7,1,2.8s-1.7,2.5-1.7,2.5h-4.3c0,0-6.2,0.6-10.1,0.3c-3.9-0.3-5.5-0.8-7.1-1.6s-3.1-3-3.1-3
	s-0.2-0.8-1.9-1.5s-1.8-2.9-1.9-3.8s0-8.6,0-8.6s0.2-3,3-4C39.8,328.8,46.5,328.6,49.7,321.2z"/>
<g id="Wiixt3.tif">
	<g>
		<path fill="#FAC01C" d="M54.3,314.5c0.2,0,0.4,0,0.6,0c0,0,0,0,0.1,0c0.2,0,0.5,0,0.7,0.1c1,0.2,1.8,0.8,2.2,1.7
			c0.2,0.5,0.4,1.1,0.4,1.6c0.1,0.6,0.1,1.3,0.1,2c0,0.3,0,0.5-0.1,0.8c-0.1,0.7-0.3,1.4-0.5,2.1c-0.4,1.1-0.8,2.2-1.3,3.3
			c-0.4,0.8-0.7,1.7-1,2.6c-0.1,0.3-0.2,0.6-0.2,1h-0.1c-0.3,0.1-0.7,0.1-1,0.2c-0.7,0.2-1.4,0.6-1.9,1.2c-0.5,0.5-0.7,1.2-0.7,1.8
			c0,0.3,0,0.5,0.1,0.8c0.1,0.4,0.2,0.9,0.4,1.3v0.1c0,0.1,0,0.2,0,0.4c0,0.3,0,0.6,0,1c0,0.3-0.1,0.6-0.1,0.9
			c-0.2,0.9-0.5,1.8-0.9,2.6c-0.3,0.6-0.8,1.2-1.2,1.7c-0.5,0.6-1.1,1.1-1.8,1.5c-0.2,0.1-0.3,0.3-0.4,0.5c-0.1,0.2,0,0.4,0.2,0.5
			c0.2,0,0.4,0,0.6-0.1c0.6-0.3,1.1-0.7,1.5-1.2c0.3-0.3,0.6-0.6,0.9-0.9c0.2-0.3,0.5-0.6,0.7-0.9c0.3-0.5,0.6-1,0.9-1.6
			c0,0,0-0.1,0.1-0.1c0,0,0,0,0.1,0.1c0.2,0.3,0.4,0.5,0.7,0.8c0.1,0.1,0.2,0.1,0.3,0.2c-0.1,0-0.1,0-0.2,0c-0.3,0-0.7,0.2-0.9,0.3
			c-0.5,0.3-0.9,0.6-1.1,1.1c-0.2,0.4-0.3,0.9-0.2,1.4s0.2,1,0.5,1.5c0.1,0.3,0.3,0.5,0.6,0.7c0.1,0.1,0.3,0.2,0.4,0.3h-0.1h-0.1
			c-0.6,0.3-0.9,0.7-1.1,1.3c-0.1,0.5-0.2,1-0.1,1.5c0.2,1.1,0.8,1.8,1.8,2.3c0.2,0.1,0.5,0.2,0.8,0.2c-0.9,0-1.8,0-2.7,0
			c-1.3,0-2.7-0.1-4-0.3c-1.1-0.2-2.2-0.4-3.3-0.8c-1.3-0.4-2.5-1.1-3.4-2.1c-0.5-0.5-1-1-1.5-1.5c-0.4-0.3-0.7-0.6-1.2-0.8
			c-0.7-0.3-1.2-0.8-1.5-1.5c-0.3-0.6-0.4-1.3-0.5-2c-0.1-0.8-0.1-1.6-0.1-2.3c0-0.5,0-1,0-1.6c0-1.1-0.1-2.1,0-3.2
			c0-0.6,0.1-1.2,0.3-1.8c0.2-0.8,0.7-1.5,1.5-1.9c1.1-0.5,2.2-1,3.3-1.4c1.2-0.4,2.3-0.9,3.5-1.3c1-0.4,1.8-0.9,2.6-1.7
			c0.9-0.9,1.7-2,2.4-3.2s1.2-2.5,1.7-3.8c0.3-1,0.6-1.9,1-2.9c0.2-0.6,0.5-1.2,0.8-1.7c0.4-0.5,0.8-0.9,1.4-1
			C54.2,314.6,54.2,314.6,54.3,314.5z"/>
		<path fill="#F2AC11" d="M54.7,351.1c-0.3,0-0.5,0-0.8-0.1s-0.5-0.1-0.8-0.2c-1-0.4-1.6-1.2-1.8-2.3c-0.1-0.5-0.1-1,0.1-1.5
			c0.2-0.6,0.5-1.1,1.1-1.3h0.1h0.1c-0.2-0.1-0.3-0.2-0.4-0.3c-0.2-0.2-0.4-0.4-0.6-0.7c-0.3-0.5-0.4-1-0.5-1.5c0-0.5,0-0.9,0.2-1.4
			s0.6-0.9,1.1-1.1c0.3-0.2,0.6-0.3,0.9-0.3c0,0,0.1,0,0.2,0c-0.1-0.1-0.2-0.1-0.3-0.2c-0.3-0.2-0.5-0.5-0.7-0.8c0,0,0-0.1-0.1-0.1
			c0,0,0,0-0.1,0.1c-0.2,0.5-0.5,1.1-0.9,1.6c-0.2,0.3-0.4,0.6-0.7,0.9s-0.6,0.6-0.9,0.9c-0.5,0.4-1,0.9-1.5,1.2
			c-0.2,0.1-0.4,0.2-0.6,0.1c-0.2,0-0.3-0.3-0.2-0.5s0.3-0.3,0.4-0.5c0.6-0.4,1.2-0.9,1.8-1.5c0.5-0.5,0.9-1.1,1.2-1.7
			c0.5-0.8,0.8-1.7,0.9-2.6c0.1-0.3,0.1-0.6,0.1-0.9s0-0.6,0-1c0-0.1,0-0.2,0-0.4v-0.1c-0.3-0.4-0.4-0.8-0.4-1.3
			c0-0.3-0.1-0.5-0.1-0.8c0-0.7,0.2-1.3,0.7-1.8c0.5-0.6,1.1-1,1.9-1.2c0.3-0.1,0.7-0.2,1-0.2h0.1v0.1c0,0.1,0.2,0.3,0.3,0.2
			c0.4-0.1,0.8-0.2,1.2-0.2c1-0.1,2-0.2,3-0.2c0.9,0,1.8,0,2.7,0.1c0.4,0,0.7,0.1,1.1,0.2c0.7,0.2,1.1,0.6,1.3,1.3
			c0.1,0.5,0.2,1,0.1,1.5c-0.1,0.6-0.4,1.1-1,1.4c-0.3,0.2-0.7,0.3-1,0.3h-0.1c-0.1,0.2-0.1,0.4,0.1,0.6L63,335h-0.1
			c-0.2,0-0.4,0-0.6,0c-0.3,0-0.6,0.1-0.8,0.1c-0.3,0-0.6,0.1-0.9,0.1c-0.3,0-0.7,0.1-1,0.1c-0.4,0.1-0.9,0.1-1.3,0.2
			c-0.5,0.1-0.9,0.1-1.4,0.2s-1,0.1-1.5,0.2c-0.4,0.1-0.9,0.2-1.3,0.4c-0.4,0.2-0.7,0.5-0.8,1c0,0.2,0,0.4,0,0.6s0,0.4,0,0.5
			c0.1,0.8,0.6,1.3,1.3,1.6c0.5,0.2,1.1,0.3,1.6,0.3c0.4,0,0.8,0,1.1,0c0.5,0,1,0,1.5,0c0.2,0,0.5,0,0.7,0c0.5,0,1,0,1.5,0
			c0.4,0,0.9,0,1.3,0h0.1c0.1,0,0.2,0,0.2,0c0.1,0,0.1,0,0.2,0c0.1,0,0.2,0,0.3,0c-0.1,0.1-0.2,0.1-0.2,0.2c-0.1,0.2-0.1,0.5,0,0.7
			c-0.2,0-0.3,0-0.5-0.1c-0.5,0-0.9-0.1-1.4-0.1c-0.4,0-0.8,0-1.2,0c-0.2,0-0.4,0-0.6,0c-0.7,0-1.4,0-2.2,0c-0.3,0-0.7,0-1,0
			s-0.6,0-0.9,0c-0.3,0-0.7,0-1,0.1c-0.4,0-0.8,0.1-1.2,0.3c-0.4,0.2-0.7,0.6-0.8,1.1c-0.1,0.4,0,0.8,0.1,1.1
			c0.1,0.4,0.3,0.7,0.6,0.9c0.3,0.3,0.6,0.5,1,0.6c0.2,0.1,0.5,0.1,0.7,0.1c0.4,0,0.7,0.1,1.1,0.1c0.3,0,0.6,0,0.9,0.1
			c0.4,0,0.8,0.1,1.2,0.1c0.3,0,0.6,0,0.9,0.1c0.4,0,0.9,0.1,1.3,0.1c0.4,0,0.8,0.1,1.2,0.1h0.1h-0.1c-0.2,0.1-0.2,0.3-0.1,0.5
			c0,0.1,0.1,0.2,0.2,0.2c0,0,0.1,0,0.1,0.1c0.4,0.1,0.7,0.3,0.9,0.6c0.2,0.3,0.3,0.6,0.3,1c0,0.1,0,0.3,0,0.4c0,0.4-0.2,0.7-0.5,1
			s-0.7,0.6-1.1,0.7c-0.7,0.3-1.4,0.4-2.1,0.5c-0.3,0-0.6,0.1-0.9,0.1c-0.5,0-0.9,0.1-1.4,0.1c-0.4,0-0.8,0-1.2,0c0,0,0,0-0.1,0
			h-0.1H55C55.3,351.1,55,351.1,54.7,351.1z M59.1,346.4c-0.1,0-0.2,0-0.3,0C58.8,346.4,58.9,346.4,59.1,346.4c0.2,0,0.4,0,0.5,0
			c0.2,0,0.5,0,0.7,0c0.1,0,0.2,0,0.2,0C60,346.4,59.5,346.4,59.1,346.4z"/>
		<path fill="#FAC01C" d="M63.3,335.1c0.1,0,0.3,0,0.4,0c0.5,0,0.9,0.2,1.3,0.4c0.8,0.4,1.2,1.1,1.4,2c0,0.1,0,0.2,0,0.3
			c0,0.1,0,0.2,0,0.2c0,0.1,0,0.3-0.1,0.4c-0.1,0.5-0.4,0.9-0.7,1.3c-0.3,0.2-0.6,0.4-0.9,0.5s-0.7,0.1-1.1,0.1c-0.1,0-0.2,0-0.3,0
			s-0.1,0-0.2,0c-0.1,0-0.2,0-0.2,0h-0.1c-0.4,0-0.9,0-1.3,0c-0.5,0-1,0-1.5,0c-0.2,0-0.5,0-0.7,0c-0.5,0-1,0-1.5,0
			c-0.4,0-0.8,0-1.1,0c-0.6,0-1.1-0.1-1.6-0.3c-0.7-0.3-1.2-0.8-1.3-1.6c0-0.2,0-0.4,0-0.5c0-0.2,0-0.4,0-0.6c0.1-0.5,0.4-0.8,0.8-1
			c0.4-0.2,0.8-0.3,1.3-0.4s1-0.1,1.5-0.2s0.9-0.1,1.4-0.2c0.4-0.1,0.9-0.1,1.3-0.2c0.3,0,0.7-0.1,1-0.1s0.6-0.1,0.9-0.1
			c0.3,0,0.6-0.1,0.8-0.1s0.4-0.1,0.6,0C63.2,335.1,63.2,335.1,63.3,335.1z"/>
		<path fill="#FAC01C" d="M54.7,351.1c0.3,0,0.6,0,1,0h0.1C55.4,351.2,55,351.2,54.7,351.1C54.7,351.2,54.7,351.2,54.7,351.1
			C54.7,351.2,54.7,351.2,54.7,351.1z"/>
		<path fill="#FAC01C" d="M63.5,341.3c0.4,0.1,0.7,0.3,1,0.5c0.5,0.4,0.7,0.8,0.8,1.4c0.1,0.5,0,1-0.2,1.4c-0.1,0.2-0.3,0.4-0.4,0.5
			c-0.5,0.5-1.1,0.7-1.8,0.8c-0.3,0-0.6,0-0.9,0c0,0,0,0-0.1,0c-0.4,0-0.8,0-1.2-0.1c-0.4,0-0.9-0.1-1.3-0.1c-0.3,0-0.6,0-0.9-0.1
			c-0.4,0-0.8-0.1-1.2-0.1c-0.3,0-0.6,0-0.9-0.1c-0.4,0-0.7-0.1-1.1-0.1c-0.2,0-0.5,0-0.7-0.1c-0.4-0.1-0.7-0.3-1-0.6
			c-0.3-0.3-0.5-0.5-0.6-0.9s-0.2-0.8-0.1-1.1c0.1-0.5,0.4-0.8,0.8-1.1c0.4-0.2,0.8-0.3,1.2-0.3c0.3,0,0.7,0,1-0.1
			c0.3,0,0.6,0,0.9,0c0.3,0,0.7,0,1,0c0.7,0,1.4,0,2.2,0c0.2,0,0.4,0,0.6,0c0.4,0,0.8,0,1.2,0c0.5,0,0.9,0,1.4,0.1
			C63.1,341.2,63.3,341.2,63.5,341.3z"/>
		<path fill="#FAC01C" d="M59.1,346.4c0.5,0,1,0,1.5,0.1c-0.1,0-0.2,0-0.2,0c-0.2,0-0.5,0-0.7,0C59.4,346.4,59.2,346.4,59.1,346.4
			L59.1,346.4z"/>
		<path fill="#FAC01C" d="M59.1,346.4c-0.1,0-0.2,0-0.3,0C58.8,346.4,58.9,346.3,59.1,346.4L59.1,346.4z"/>
		<path fill="#FAC01C" d="M62.3,329.5c0.1,0,0.3,0,0.4,0c0.5,0,0.9,0.2,1.3,0.4c0.8,0.4,1.2,1.1,1.4,2c0,0.1,0,0.2,0,0.3
			c0,0.1,0,0.2,0,0.2c0,0.1,0,0.3-0.1,0.4c-0.1,0.5-0.4,0.9-0.7,1.3c-0.3,0.2-0.6,0.4-0.9,0.5c-0.3,0.1-0.7,0.1-1.1,0.1
			c-0.1,0-0.2,0-0.3,0s-0.1,0-0.2,0c-0.1,0-0.2,0-0.2,0h-0.1c-0.4,0-0.9,0-1.3,0c-0.5,0-1,0-1.5,0c-0.2,0-0.5,0-0.7,0
			c-0.5,0-1,0-1.5,0c-0.4,0-0.8,0-1.1,0c-0.6,0-1.1-0.1-1.6-0.3c-0.7-0.3-1.2-0.8-1.3-1.6c0-0.2,0-0.4,0-0.5c0-0.2,0-0.4,0-0.6
			c0.1-0.5,0.4-0.8,0.8-1c0.4-0.2,0.8-0.3,1.3-0.4s1-0.1,1.5-0.2s0.9-0.1,1.4-0.2c0.4-0.1,0.9-0.1,1.3-0.2c0.3,0,0.7-0.1,1-0.1
			s0.6-0.1,0.9-0.1c0.3,0,0.6-0.1,0.8-0.1s0.4-0.1,0.6,0C62.3,329.6,62.3,329.6,62.3,329.5z"/>
	</g>
	<path fill="#FAC01C" d="M62.1,346.7c0.3,0.1,0.6,0.2,0.8,0.5c0.4,0.3,0.6,0.8,0.7,1.3c0.1,0.5,0,0.9-0.2,1.3
		c-0.1,0.2-0.2,0.3-0.3,0.5c-0.4,0.4-0.9,0.6-1.5,0.7c-0.2,0-0.5,0-0.7,0c0,0,0,0-0.1,0c-0.3,0-0.6,0-1-0.1c-0.3,0-0.7,0-1-0.1
		c-0.2,0-0.5,0-0.7-0.1c-0.3,0-0.7-0.1-1-0.1c-0.2,0-0.5,0-0.7-0.1c-0.3,0-0.6-0.1-0.9-0.1c-0.2,0-0.4,0-0.6-0.1
		c-0.3-0.1-0.6-0.3-0.8-0.5s-0.4-0.5-0.5-0.8s-0.2-0.7-0.1-1.1c0.1-0.5,0.3-0.8,0.7-1c0.3-0.2,0.6-0.3,0.9-0.3c0.3,0,0.6,0,0.8-0.1
		c0.2,0,0.5,0,0.7,0c0.3,0,0.6,0,0.8,0c0.6,0,1.2,0,1.7,0c0.1,0,0.3,0,0.4,0c0.3,0,0.6,0,1,0s0.7,0,1.1,0.1
		C61.8,346.7,61.9,346.7,62.1,346.7z"/>
</g>
</svg>
