<?xml version="1.0" encoding="utf-8"?>
<!-- Generator: Adobe Illustrator 18.0.0, SVG Export Plug-In . SVG Version: 6.00 Build 0)  -->
<!DOCTYPE svg PUBLIC "-//W3C//DTD SVG 1.1//EN" "http://www.w3.org/Graphics/SVG/1.1/DTD/svg11.dtd">
<svg version="1.1" id="Layer_1" xmlns="http://www.w3.org/2000/svg" xmlns:xlink="http://www.w3.org/1999/xlink" x="0px" y="0px"
	 viewBox="0 0 800 600" enable-background="new 0 0 800 600" xml:space="preserve">
<path fill="#E6E6E6" d="M358.5,543.4H23c-6.6,0-12-5.4-12-12V21.6c0-6.6,5.4-12,12-12h335.5c6.6,0,12,5.4,12,12v509.8
	C370.5,538,365.1,543.4,358.5,543.4z"/>
<path fill="#FFFFFF" d="M54.7,438.3h-20c-6.6,0-12,5.4-12,12v11.2c0,6.6,5.4,12,12,12h20c6.6,0,12-5.4,12-12v-11.2
	C66.7,443.7,61.3,438.3,54.7,438.3z"/>
<path fill="#FFFFFF" d="M346.8,383.9H136.6c-6.6,0-12,5.4-12,12v10.9c0,6.6,5.4,12,12,12h210.2c6.6,0,12-5.4,12-12v-10.9
	C358.8,389.3,353.4,383.9,346.8,383.9z"/>
<path fill="#B3B3B3" d="M344.6,529.2h-310c-6.6,0-12-5.4-12-12v-12.8c0-6.6,5.4-12,12-12h310c6.6,0,12,5.4,12,12v12.8
	C356.6,523.8,351.2,529.2,344.6,529.2z"/>
<text transform="matrix(1 0 0 1 34.8841 516.5978)" fill="#FFFFFF" font-family="'Ubuntu-LightItalic'" font-size="17.6097">Schrijf een bericht</text>
<rect x="36.1" y="80.6" fill="none" width="222.5" height="149.2"/>
<text transform="matrix(1 0 0 1 36.1341 93.988)"><tspan x="0" y="0" font-family="'Ubuntu-Light'" font-size="17.2442">ik sta op het punt om een </tspan><tspan x="0" y="20.7" font-family="'Ubuntu-Light'" font-size="17.2442">salarisverhoging te krijgen </tspan><tspan x="0" y="41.4" font-family="'Ubuntu-Light'" font-size="17.2442">op mijn werk, ik ontvang nu </tspan><tspan x="0" y="62.1" font-family="'Ubuntu-Light'" font-size="17.2442">nog huurtoeslag.</tspan><tspan x="0" y="103.5" font-family="'Ubuntu-Light'" font-size="17.2442">gaat dit invloed hebben om </tspan><tspan x="0" y="124.2" font-family="'Ubuntu-Light'" font-size="17.2442">mijn huurtoeslag?</tspan></text>
<rect x="116.6" y="392.3" fill="none" width="231.9" height="23.3"/>
<text transform="matrix(1 0 0 1 137.8533 405.6495)" font-family="'Ubuntu-Light'" font-size="17.2442">hoeveel ga je er op vooruit?</text>
<text transform="matrix(1 0 0 1 33.2459 462.4201)" font-family="'Ubuntu-Light'" font-size="17.2442">5%</text>
<path fill="#FFFFFF" d="M342.8,249.9H65.1c-6.6,0-12,5.4-12,12v10.9c0,6.6,5.4,12,12,12h277.7c6.6,0,12-5.4,12-12v-10.9
	C354.8,255.3,349.4,249.9,342.8,249.9z"/>
<rect x="57.3" y="258.9" fill="none" width="287.2" height="23.4"/>
<text transform="matrix(1 0 0 1 64.7825 272.236)" font-family="'Ubuntu-Light'" font-size="17.2442">mag ik inzien hoeveel je nu verdient?</text>
<path fill="#FFFFFF" d="M63.2,302.9H34.7c-6.6,0-12,5.4-12,12v36.8c0,6.6,5.4,12,12,12h28.5c6.6,0,12-5.4,12-12v-36.8
	C75.2,308.3,69.8,302.9,63.2,302.9z"/>
<g id="Wiixt3.tif">
	<g>
		<path fill="#FAC01C" d="M52.3,315.2c0.2,0,0.4,0,0.6,0c0,0,0,0,0.1,0c0.2,0,0.5,0,0.7,0.1c1,0.2,1.8,0.8,2.2,1.7
			c0.2,0.5,0.4,1.1,0.4,1.6c0.1,0.6,0.1,1.3,0.1,2c0,0.3,0,0.5-0.1,0.8c-0.1,0.7-0.3,1.4-0.5,2.1c-0.4,1.1-0.8,2.2-1.3,3.3
			c-0.4,0.8-0.7,1.7-1,2.6c-0.1,0.3-0.2,0.6-0.2,1c0,0-0.1,0-0.1,0c-0.3,0.1-0.7,0.1-1,0.2c-0.7,0.2-1.4,0.6-1.9,1.2
			c-0.5,0.5-0.7,1.2-0.7,1.8c0,0.3,0,0.5,0.1,0.8c0.1,0.4,0.2,0.9,0.4,1.3c0,0,0,0.1,0,0.1c0,0.1,0,0.2,0,0.4c0,0.3,0,0.6,0,1
			c0,0.3-0.1,0.6-0.1,0.9c-0.2,0.9-0.5,1.8-0.9,2.6c-0.3,0.6-0.8,1.2-1.2,1.7c-0.5,0.6-1.1,1.1-1.8,1.5c-0.2,0.1-0.3,0.3-0.4,0.5
			c-0.1,0.2,0,0.4,0.2,0.5c0.2,0,0.4,0,0.6-0.1c0.6-0.3,1.1-0.7,1.5-1.2c0.3-0.3,0.6-0.6,0.9-0.9c0.2-0.3,0.5-0.6,0.7-0.9
			c0.3-0.5,0.6-1,0.9-1.6c0,0,0-0.1,0.1-0.1c0,0,0,0,0.1,0.1c0.2,0.3,0.4,0.5,0.7,0.8c0.1,0.1,0.2,0.1,0.3,0.2c-0.1,0-0.1,0-0.2,0
			c-0.3,0-0.7,0.2-0.9,0.3c-0.5,0.3-0.9,0.6-1.1,1.1c-0.2,0.4-0.3,0.9-0.2,1.4c0.1,0.5,0.2,1,0.5,1.5c0.1,0.3,0.3,0.5,0.6,0.7
			c0.1,0.1,0.3,0.2,0.4,0.3c0,0-0.1,0-0.1,0c0,0-0.1,0-0.1,0c-0.6,0.3-0.9,0.7-1.1,1.3c-0.1,0.5-0.2,1-0.1,1.5
			c0.2,1.1,0.8,1.8,1.8,2.3c0.2,0.1,0.5,0.2,0.8,0.2c-0.9,0-1.8,0-2.7,0c-1.3,0-2.7-0.1-4-0.3c-1.1-0.2-2.2-0.4-3.3-0.8
			c-1.3-0.4-2.5-1.1-3.4-2.1c-0.5-0.5-1-1-1.5-1.5c-0.4-0.3-0.7-0.6-1.2-0.8c-0.7-0.3-1.2-0.8-1.5-1.5c-0.3-0.6-0.4-1.3-0.5-2
			c-0.1-0.8-0.1-1.6-0.1-2.3c0-0.5,0-1,0-1.6c0-1.1-0.1-2.1,0-3.2c0-0.6,0.1-1.2,0.3-1.8c0.2-0.8,0.7-1.5,1.5-1.9
			c1.1-0.5,2.2-1,3.3-1.4c1.2-0.4,2.3-0.9,3.5-1.3c1-0.4,1.8-0.9,2.6-1.7c0.9-0.9,1.7-2,2.4-3.2c0.7-1.2,1.2-2.5,1.7-3.8
			c0.3-1,0.6-1.9,1-2.9c0.2-0.6,0.5-1.2,0.8-1.7c0.4-0.5,0.8-0.9,1.4-1C52.2,315.3,52.2,315.3,52.3,315.2z"/>
		<path fill="#F2AC11" d="M52.7,351.8c-0.3,0-0.5,0-0.8-0.1c-0.3-0.1-0.5-0.1-0.8-0.2c-1-0.4-1.6-1.2-1.8-2.3
			c-0.1-0.5-0.1-1,0.1-1.5c0.2-0.6,0.5-1.1,1.1-1.3c0,0,0.1,0,0.1,0c0,0,0.1,0,0.1,0c-0.2-0.1-0.3-0.2-0.4-0.3
			c-0.2-0.2-0.4-0.4-0.6-0.7c-0.3-0.5-0.4-1-0.5-1.5c0-0.5,0-0.9,0.2-1.4c0.2-0.5,0.6-0.9,1.1-1.1c0.3-0.2,0.6-0.3,0.9-0.3
			c0,0,0.1,0,0.2,0c-0.1-0.1-0.2-0.1-0.3-0.2c-0.3-0.2-0.5-0.5-0.7-0.8c0,0,0-0.1-0.1-0.1c0,0,0,0-0.1,0.1c-0.2,0.5-0.5,1.1-0.9,1.6
			c-0.2,0.3-0.4,0.6-0.7,0.9c-0.3,0.3-0.6,0.6-0.9,0.9c-0.5,0.4-1,0.9-1.5,1.2c-0.2,0.1-0.4,0.2-0.6,0.1c-0.2,0-0.3-0.3-0.2-0.5
			c0.1-0.2,0.3-0.3,0.4-0.5c0.6-0.4,1.2-0.9,1.8-1.5c0.5-0.5,0.9-1.1,1.2-1.7c0.5-0.8,0.8-1.7,0.9-2.6c0.1-0.3,0.1-0.6,0.1-0.9
			c0-0.3,0-0.6,0-1c0-0.1,0-0.2,0-0.4c0,0,0-0.1,0-0.1c-0.3-0.4-0.4-0.8-0.4-1.3c0-0.3-0.1-0.5-0.1-0.8c0-0.7,0.2-1.3,0.7-1.8
			c0.5-0.6,1.1-1,1.9-1.2c0.3-0.1,0.7-0.2,1-0.2c0,0,0.1,0,0.1,0c0,0,0,0.1,0,0.1c0,0.1,0.2,0.3,0.3,0.2c0.4-0.1,0.8-0.2,1.2-0.2
			c1-0.1,2-0.2,3-0.2c0.9,0,1.8,0,2.7,0.1c0.4,0,0.7,0.1,1.1,0.2c0.7,0.2,1.1,0.6,1.3,1.3c0.1,0.5,0.2,1,0.1,1.5
			c-0.1,0.6-0.4,1.1-1,1.4c-0.3,0.2-0.7,0.3-1,0.3c0,0-0.1,0-0.1,0c-0.1,0.2-0.1,0.4,0.1,0.6c0,0,0.1,0.1,0.1,0.1c0,0-0.1,0-0.1,0
			c-0.2,0-0.4,0-0.6,0c-0.3,0-0.6,0.1-0.8,0.1c-0.3,0-0.6,0.1-0.9,0.1c-0.3,0-0.7,0.1-1,0.1c-0.4,0.1-0.9,0.1-1.3,0.2
			c-0.5,0.1-0.9,0.1-1.4,0.2c-0.5,0.1-1,0.1-1.5,0.2c-0.4,0.1-0.9,0.2-1.3,0.4c-0.4,0.2-0.7,0.5-0.8,1c0,0.2,0,0.4,0,0.6
			c0,0.2,0,0.4,0,0.5c0.1,0.8,0.6,1.3,1.3,1.6c0.5,0.2,1.1,0.3,1.6,0.3c0.4,0,0.8,0,1.1,0c0.5,0,1,0,1.5,0c0.2,0,0.5,0,0.7,0
			c0.5,0,1,0,1.5,0c0.4,0,0.9,0,1.3,0c0,0,0.1,0,0.1,0c0.1,0,0.2,0,0.2,0c0.1,0,0.1,0,0.2,0c0.1,0,0.2,0,0.3,0
			c-0.1,0.1-0.2,0.1-0.2,0.2c-0.1,0.2-0.1,0.5,0,0.7c-0.2,0-0.3,0-0.5-0.1c-0.5,0-0.9-0.1-1.4-0.1c-0.4,0-0.8,0-1.2,0
			c-0.2,0-0.4,0-0.6,0c-0.7,0-1.4,0-2.2,0c-0.3,0-0.7,0-1,0c-0.3,0-0.6,0-0.9,0c-0.3,0-0.7,0-1,0.1c-0.4,0-0.8,0.1-1.2,0.3
			c-0.4,0.2-0.7,0.6-0.8,1.1c-0.1,0.4,0,0.8,0.1,1.1c0.1,0.4,0.3,0.7,0.6,0.9c0.3,0.3,0.6,0.5,1,0.6c0.2,0.1,0.5,0.1,0.7,0.1
			c0.4,0,0.7,0.1,1.1,0.1c0.3,0,0.6,0,0.9,0.1c0.4,0,0.8,0.1,1.2,0.1c0.3,0,0.6,0,0.9,0.1c0.4,0,0.9,0.1,1.3,0.1
			c0.4,0,0.8,0.1,1.2,0.1c0,0,0.1,0,0.1,0c0,0-0.1,0-0.1,0c-0.2,0.1-0.2,0.3-0.1,0.5c0,0.1,0.1,0.2,0.2,0.2c0,0,0.1,0,0.1,0.1
			c0.4,0.1,0.7,0.3,0.9,0.6c0.2,0.3,0.3,0.6,0.3,1c0,0.1,0,0.3,0,0.4c0,0.4-0.2,0.7-0.5,1c-0.3,0.3-0.7,0.6-1.1,0.7
			c-0.7,0.3-1.4,0.4-2.1,0.5c-0.3,0-0.6,0.1-0.9,0.1c-0.5,0-0.9,0.1-1.4,0.1c-0.4,0-0.8,0-1.2,0c0,0,0,0-0.1,0c0,0-0.1,0-0.1,0
			c0,0-0.1,0-0.1,0C53.3,351.8,53,351.8,52.7,351.8z M57.1,347.1c-0.1,0-0.2,0-0.3,0C56.8,347.1,56.9,347.1,57.1,347.1
			c0.2,0,0.4,0,0.5,0c0.2,0,0.5,0,0.7,0c0.1,0,0.2,0,0.2,0C58,347.1,57.5,347.1,57.1,347.1z"/>
		<path fill="#FAC01C" d="M61.3,335.8c0.1,0,0.3,0,0.4,0c0.5,0,0.9,0.2,1.3,0.4c0.8,0.4,1.2,1.1,1.4,2c0,0.1,0,0.2,0,0.3
			c0,0.1,0,0.2,0,0.2c0,0.1,0,0.3-0.1,0.4c-0.1,0.5-0.4,0.9-0.7,1.3c-0.3,0.2-0.6,0.4-0.9,0.5c-0.3,0.1-0.7,0.1-1.1,0.1
			c-0.1,0-0.2,0-0.3,0c-0.1,0-0.1,0-0.2,0c-0.1,0-0.2,0-0.2,0c0,0-0.1,0-0.1,0c-0.4,0-0.9,0-1.3,0c-0.5,0-1,0-1.5,0
			c-0.2,0-0.5,0-0.7,0c-0.5,0-1,0-1.5,0c-0.4,0-0.8,0-1.1,0c-0.6,0-1.1-0.1-1.6-0.3c-0.7-0.3-1.2-0.8-1.3-1.6c0-0.2,0-0.4,0-0.5
			c0-0.2,0-0.4,0-0.6c0.1-0.5,0.4-0.8,0.8-1c0.4-0.2,0.8-0.3,1.3-0.4c0.5-0.1,1-0.1,1.5-0.2c0.5-0.1,0.9-0.1,1.4-0.2
			c0.4-0.1,0.9-0.1,1.3-0.2c0.3,0,0.7-0.1,1-0.1c0.3,0,0.6-0.1,0.9-0.1c0.3,0,0.6-0.1,0.8-0.1c0.2,0,0.4-0.1,0.6,0
			C61.2,335.8,61.2,335.8,61.3,335.8z"/>
		<path fill="#FAC01C" d="M52.7,351.8c0.3,0,0.6,0,1,0c0,0,0.1,0,0.1,0C53.4,351.9,53,351.9,52.7,351.8
			C52.7,351.9,52.7,351.9,52.7,351.8C52.7,351.9,52.7,351.9,52.7,351.8z"/>
		<path fill="#FAC01C" d="M61.5,342c0.4,0.1,0.7,0.3,1,0.5c0.5,0.4,0.7,0.8,0.8,1.4c0.1,0.5,0,1-0.2,1.4c-0.1,0.2-0.3,0.4-0.4,0.5
			c-0.5,0.5-1.1,0.7-1.8,0.8c-0.3,0-0.6,0-0.9,0c0,0,0,0-0.1,0c-0.4,0-0.8,0-1.2-0.1c-0.4,0-0.9-0.1-1.3-0.1c-0.3,0-0.6,0-0.9-0.1
			c-0.4,0-0.8-0.1-1.2-0.1c-0.3,0-0.6,0-0.9-0.1c-0.4,0-0.7-0.1-1.1-0.1c-0.2,0-0.5,0-0.7-0.1c-0.4-0.1-0.7-0.3-1-0.6
			c-0.3-0.3-0.5-0.5-0.6-0.9c-0.1-0.4-0.2-0.8-0.1-1.1c0.1-0.5,0.4-0.8,0.8-1.1c0.4-0.2,0.8-0.3,1.2-0.3c0.3,0,0.7,0,1-0.1
			c0.3,0,0.6,0,0.9,0c0.3,0,0.7,0,1,0c0.7,0,1.4,0,2.2,0c0.2,0,0.4,0,0.6,0c0.4,0,0.8,0,1.2,0c0.5,0,0.9,0,1.4,0.1
			C61.1,341.9,61.3,341.9,61.5,342z"/>
		<path fill="#FAC01C" d="M57.1,347.1c0.5,0,1,0,1.5,0.1c-0.1,0-0.2,0-0.2,0c-0.2,0-0.5,0-0.7,0C57.4,347.1,57.2,347.1,57.1,347.1
			L57.1,347.1z"/>
		<path fill="#FAC01C" d="M57.1,347.1c-0.1,0-0.2,0-0.3,0C56.8,347.1,56.9,347,57.1,347.1L57.1,347.1z"/>
		<path fill="#FAC01C" d="M60.3,330.2c0.1,0,0.3,0,0.4,0c0.5,0,0.9,0.2,1.3,0.4c0.8,0.4,1.2,1.1,1.4,2c0,0.1,0,0.2,0,0.3
			c0,0.1,0,0.2,0,0.2c0,0.1,0,0.3-0.1,0.4c-0.1,0.5-0.4,0.9-0.7,1.3c-0.3,0.2-0.6,0.4-0.9,0.5c-0.3,0.1-0.7,0.1-1.1,0.1
			c-0.1,0-0.2,0-0.3,0c-0.1,0-0.1,0-0.2,0c-0.1,0-0.2,0-0.2,0c0,0-0.1,0-0.1,0c-0.4,0-0.9,0-1.3,0c-0.5,0-1,0-1.5,0
			c-0.2,0-0.5,0-0.7,0c-0.5,0-1,0-1.5,0c-0.4,0-0.8,0-1.1,0c-0.6,0-1.1-0.1-1.6-0.3c-0.7-0.3-1.2-0.8-1.3-1.6c0-0.2,0-0.4,0-0.5
			c0-0.2,0-0.4,0-0.6c0.1-0.5,0.4-0.8,0.8-1c0.4-0.2,0.8-0.3,1.3-0.4c0.5-0.1,1-0.1,1.5-0.2c0.5-0.1,0.9-0.1,1.4-0.2
			c0.4-0.1,0.9-0.1,1.3-0.2c0.3,0,0.7-0.1,1-0.1c0.3,0,0.6-0.1,0.9-0.1c0.3,0,0.6-0.1,0.8-0.1c0.2,0,0.4-0.1,0.6,0
			C60.3,330.3,60.3,330.3,60.3,330.2z"/>
	</g>
	<path fill="#FAC01C" d="M60.1,347.4c0.3,0.1,0.6,0.2,0.8,0.5c0.4,0.3,0.6,0.8,0.7,1.3c0.1,0.5,0,0.9-0.2,1.3
		c-0.1,0.2-0.2,0.3-0.3,0.5c-0.4,0.4-0.9,0.6-1.5,0.7c-0.2,0-0.5,0-0.7,0c0,0,0,0-0.1,0c-0.3,0-0.6,0-1-0.1c-0.3,0-0.7,0-1-0.1
		c-0.2,0-0.5,0-0.7-0.1c-0.3,0-0.7-0.1-1-0.1c-0.2,0-0.5,0-0.7-0.1c-0.3,0-0.6-0.1-0.9-0.1c-0.2,0-0.4,0-0.6-0.1
		c-0.3-0.1-0.6-0.3-0.8-0.5c-0.2-0.2-0.4-0.5-0.5-0.8c-0.1-0.3-0.2-0.7-0.1-1.1c0.1-0.5,0.3-0.8,0.7-1c0.3-0.2,0.6-0.3,0.9-0.3
		c0.3,0,0.6,0,0.8-0.1c0.2,0,0.5,0,0.7,0c0.3,0,0.6,0,0.8,0c0.6,0,1.2,0,1.7,0c0.1,0,0.3,0,0.4,0c0.3,0,0.6,0,1,0
		c0.4,0,0.7,0,1.1,0.1C59.8,347.4,59.9,347.4,60.1,347.4z"/>
</g>
<rect x="93.5" y="310.7" fill="none" width="242.3" height="49.1"/>
<text transform="matrix(1 0 0 1 93.5149 320.0518)"><tspan x="0" y="0" font-family="'Ubuntu-LightItalic'" font-size="12.0709">je hebt toestemming gegeven om eenmalig je </tspan><tspan x="0" y="14.5" font-family="'Ubuntu-LightItalic'" font-size="12.0709">inkomensgegevens beschikbaar te stellen aan: </tspan><tspan x="0" y="29" font-family="'Ubuntu-BoldItalic'" font-size="12.0709">de belastingdienst</tspan></text>
<path fill="#FFFFFF" d="M247.6,69.5H34.7c-6.6,0-12,5.4-12,12v140.4c0,6.6,5.4,12,12,12h212.9c6.6,0,12-5.4,12-12V81.5
	C259.6,74.9,254.2,69.5,247.6,69.5z"/>
<rect x="36.1" y="80.6" fill="none" width="222.5" height="149.2"/>
<text transform="matrix(1 0 0 1 36.1341 93.988)"><tspan x="0" y="0" font-family="'Ubuntu-Light'" font-size="17.2442">ik sta op het punt om een </tspan><tspan x="0" y="20.7" font-family="'Ubuntu-Light'" font-size="17.2442">salarisverhoging te krijgen </tspan><tspan x="0" y="41.4" font-family="'Ubuntu-Light'" font-size="17.2442">op mijn werk, ik ontvang nu </tspan><tspan x="0" y="62.1" font-family="'Ubuntu-Light'" font-size="17.2442">nog huurtoeslag.</tspan><tspan x="0" y="103.5" font-family="'Ubuntu-Light'" font-size="17.2442">gaat dit invloed hebben om </tspan><tspan x="0" y="124.2" font-family="'Ubuntu-Light'" font-size="17.2442">mijn huurtoeslag?</tspan></text>
<rect x="11" y="22" fill="none" width="359.5" height="28"/>
<text transform="matrix(1 0 0 1 66.9554 42.9751)" fill="#FFFFFF" font-family="'Ubuntu-Bold'" font-size="27.0303">service overheid AI</text>
</svg>
