<?xml version="1.0" encoding="utf-8"?>
<!-- Generator: Adobe Illustrator 18.0.0, SVG Export Plug-In . SVG Version: 6.00 Build 0)  -->
<!DOCTYPE svg PUBLIC "-//W3C//DTD SVG 1.1//EN" "http://www.w3.org/Graphics/SVG/1.1/DTD/svg11.dtd">
<svg version="1.1" id="Layer_1" xmlns="http://www.w3.org/2000/svg" xmlns:xlink="http://www.w3.org/1999/xlink" x="0px" y="0px"
	 viewBox="0 0 800 600" enable-background="new 0 0 800 600" xml:space="preserve">
<path fill="#B3B3B3" d="M764.8,57.7V21.6c0-6.6-5.4-12-12-12H416.4c-6.6,0-12,5.4-12,12v36.1H764.8z"/>
<path fill="none" stroke="#B3B3B3" stroke-miterlimit="10" d="M764.4,57.6v285.9c0,6.6-5.4,12-12,12H416.8c-6.6,0-12-5.4-12-12V57.6
	"/>
<rect x="430" y="80.6" fill="none" width="222.5" height="149.2"/>
<text transform="matrix(1 0 0 1 430.0006 93.988)"><tspan x="0" y="0" font-family="'Ubuntu-Light'" font-size="17.2442">ik sta op het punt om een </tspan><tspan x="0" y="20.7" font-family="'Ubuntu-Light'" font-size="17.2442">salarisverhoging te krijgen </tspan><tspan x="0" y="41.4" font-family="'Ubuntu-Light'" font-size="17.2442">op mijn werk, ik ontvang nu </tspan><tspan x="0" y="62.1" font-family="'Ubuntu-Light'" font-size="17.2442">nog huurtoeslag.</tspan><tspan x="0" y="103.5" font-family="'Ubuntu-Light'" font-size="17.2442">gaat dit invloed hebben om </tspan><tspan x="0" y="124.2" font-family="'Ubuntu-Light'" font-size="17.2442">mijn huurtoeslag?</tspan></text>
<path fill="#E6E6E6" d="M739.8,69.5H428.5c-6.6,0-12,5.4-12,12v229.4c0,6.6,5.4,12,12,12h311.3c6.6,0,12-5.4,12-12V81.5
	C751.8,74.9,746.4,69.5,739.8,69.5z"/>
<rect x="430" y="80.6" fill="none" width="309" height="234.6"/>
<text transform="matrix(1 0 0 1 430.0011 99.2306)"><tspan x="0" y="0" fill="#FFFFFF" font-family="'Ubuntu-Light'" font-size="24">Op basis van je huidige </tspan><tspan x="0" y="28.8" fill="#FFFFFF" font-family="'Ubuntu-Light'" font-size="24">inkomen en de huur van je </tspan><tspan x="0" y="57.6" fill="#FFFFFF" font-family="'Ubuntu-Light'" font-size="24">huidige woning heb je recht </tspan><tspan x="0" y="86.4" fill="#FFFFFF" font-family="'Ubuntu-Light'" font-size="24">op:</tspan><tspan x="0" y="115.2" fill="#FFFFFF" font-family="'Ubuntu-Bold'" font-size="24">€200,- huurtoeslag</tspan><tspan x="0" y="172.8" fill="#FFFFFF" font-family="'Ubuntu-Light'" font-size="24">Klik hier om je huurtoeslag </tspan><tspan x="0" y="201.6" fill="#FFFFFF" font-family="'Ubuntu-Light'" font-size="24">aan te vragen.</tspan></text>
<rect x="404.8" y="22" fill="none" width="359.5" height="28"/>
<text transform="matrix(1 0 0 1 531.1393 42.9751)" fill="#FFFFFF" font-family="'Ubuntu-Bold'" font-size="27.0303">timeline</text>
<rect x="424" y="246.9" fill="none" stroke="#FFFFFF" stroke-miterlimit="10" width="320" height="63.2"/>
<text transform="matrix(1 0 0 1 651.0957 343.2232)" fill="#4D4D4D" font-family="'Ubuntu-Bold'" font-size="15">1 dag geleden</text>
</svg>
